<svg width="50" height="50" viewBox="0 0 24 24" fill="none" xmlns="http://www.w3.org/2000/svg">
  <path fill="#000000" d="M16.53 14.625l-1.797 1.77 3.197 3.163a.426.426 0 01-.012.61l-2.2 2.163a.42.42 0 01-.596 0l-3.495-3.464a1.794 1.794 0 010-2.564l3.19-3.157a.426.426 0 01.61 0l1.703 1.688a.43.43 0 01.007.63zm6.953-2.578L13.146 1.798a1.974 1.974 0 00-2.79 0L.517 11.543a1.83 1.83 0 000 2.662l3.667 3.63a.426.426 0 00.605-.007l2.193-2.156a.42.42 0 00.007-.596l-2.437-2.412a.408.408 0 01-.012-.573l5.793-5.7a.426.426 0 01.61 0l5.8 5.708c.16.16.16.414 0 .574l-1.76 1.74a.432.432 0 00.008.637l3.885 3.853a.423.423 0 00.598-.004l3.66-3.622a1.83 1.83 0 00.003-2.66z"/>
</svg>
